├ÖΓÇÜ├ÿ┬│├ÖΓÇª├ÿ┬¬ ├ÖΓÇí├ÿ┬º├¢┼Æ ├ÿ┬º├Ö╦å├ÖΓÇ₧ ├ÿ┬¬├ÿ┬º ├ÿ┬│├¢┼Æ├ÿ┬▓├ÿ┬»├ÖΓÇí├ÖΓÇª ├ÿ┬│├ÿ┬▒├¢┼Æ├ÿ┬º├ÖΓÇ₧ ├ÿ┬¼├ÿ┬░├ÿ┬º├ÿ┬¿ 
├ÿ┬º├ÿ┬│├Ö┬╛├ÿ┬º├ÿ┬▒├ÿ┬¬├ÿ┬º├Ü┬⌐├Ö╦å├ÿ┬│ ├Ö┬ü├ÿ┬╡├ÖΓÇ₧ ├ÿ┬º├Ö╦å├ÖΓÇ₧ ├ÖΓÇí├ÖΓÇª├ÖΓÇí ├ÿ┬¿├ÿ┬º ├Ü┬⌐├¢┼Æ├Ö┬ü├¢┼Æ├ÿ┬¬ 
480p ├Ö╦å ├ÿ┬▓├¢┼Æ├ÿ┬▒ ├ÖΓÇá├Ö╦å├¢┼Æ├ÿ┬│ ├Ö┬ü├ÿ┬º├ÿ┬▒├ÿ┬│├¢┼Æ

E:├é┬╡Torrents5-CompletedSpartacus S01E01-S01E13 Farsi Subtitle 720PSpartacus S01E13.avi
   General
      Complete name : E:├é┬╡Torrents5-CompletedSpartacus S01E01-S01E13 Farsi Subtitle 720PSpartacus S01E13.avi
      Format : AVI
      Format/Info : Audio Video Interleave
      File size : 548 MiB
      Duration : 54mn 50s
      Overall bit rate : 1 397 Kbps
      Writing application : Nandub v1.0rc2
      Writing library : Nandub build 1853/release
   Video #0
      ID : 0
      Format : MPEG-4 Visual
      Format profile : AdvancedSimple@L5
      Format settings, BVOP : Yes
      Format settings, QPel : No
      Format settings, GMC : No warppoints
      Format settings, Matrix : Default (H.263)
      Codec ID : XVID
      Codec ID/Hint : XviD
      Duration : 54mn 50s
      Bit rate : 1 259 Kbps
      Width : 624 pixels
      Height : 352 pixels
      Display aspect ratio : 16:9
      Frame rate : 23.976 fps
      Resolution : 24 bits
      Colorimetry : 4:2:0
      Scan type : Progressive
      Bits/(Pixel*Frame) : 0.239
      Stream size : 494 MiB (90%)
      Writing library : XviD 1.3.0.dev55
   Audio #1
      ID : 1
      Format : MPEG Audio
      Format version : Version 1
      Format profile : Layer 3
      Codec ID : 55
      Codec ID/Hint : MP3
      Duration : 54mn 50s
      Bit rate mode : Variable
      Bit rate : 125 Kbps
      Nominal bit rate : 128 Kbps
      Channel(s) : 2 channels
      Sampling rate : 48.0 KHz
      Resolution : 16 bits
      Stream size : 48.8 MiB (9%)
      Alignment : Aligned on interleaves
      Interleave, duration : 24 ms (0.58 video frame)
      Interleave, preload duration : 141 ms
      Writing library : LAME3.92 
      Encoding settings : -m j -V 4 -q 2 -lowpass 17.5 --abr 128